<svg width="1024" height="1024" viewBox="0 0 1024 1024" fill="none" xmlns="http://www.w3.org/2000/svg">
<g clip-path="url(#clip0_2001_3)">
<path d="M1024 0H0V1024H1024V0Z" fill="url(#paint0_linear_2001_3)"/>
<path fill-rule="evenodd" clip-rule="evenodd" d="M783.743 78.0824C928.022 168.693 1024 329.227 1024 512C1024 719.301 900.534 897.993 723.186 978.488C696.253 859.947 640.437 809.66 540.374 775.407C538.515 809.147 547.796 877.825 523.015 879.561C475.683 882.876 308.874 800.374 297.347 723.33C286.354 649.844 288.586 537.421 279.988 480.304C58.6682 481.19 227.912 289.354 227.912 289.354L245.271 358.791H279.988C279.988 358.791 283.848 281.647 297.347 271.995C314.158 259.977 356.764 237.449 470.938 237.277C520.006 169.226 704.163 108.447 783.743 78.0824ZM609.81 341.432C604.343 348.065 621.052 376.315 630.808 394.335C648.489 426.991 683.018 455.812 776.763 453.059C798.697 452.415 828.405 453.063 852.837 444.075C946.84 359.68 675.774 244.221 661.887 254.636C636.959 273.333 688.45 329.058 696.606 341.432C673.691 340.084 638.414 341.473 609.81 341.432ZM516.071 517.143C489.629 517.143 468.161 538.611 468.161 565.054C468.161 591.496 489.629 612.964 516.071 612.964C542.514 612.964 563.982 591.496 563.982 565.054C563.982 538.611 542.514 517.143 516.071 517.143ZM666.239 1000.32C617.571 1015.7 565.747 1024 512 1024C229.419 1024 0 794.581 0 512C0 229.419 229.419 0 512 0C586.291 0 656.907 15.856 720.663 44.3758C685.401 58.6031 634.898 77.8798 627.193 75.8479C332.356 -1.88574 71.1111 268.312 71.1111 511.993C71.1111 778.481 367.203 1020.81 635.545 936.506C645.549 933.363 654.65 965.041 666.239 1000.32Z" fill="white"/>
</g>
<defs>
<linearGradient id="paint0_linear_2001_3" x1="101.446" y1="51.9603" x2="933.37" y2="963.362" gradientUnits="userSpaceOnUse">
<stop stop-color="#4CC48C"/>
<stop offset="0.5" stop-color="#476CC9"/>
<stop offset="1" stop-color="#BA1AB7"/>
</linearGradient>
<clipPath id="clip0_2001_3">
<rect width="1024" height="1024" rx="512" fill="white"/>
</clipPath>
</defs>
</svg>
